<svg width="20%" viewBox="0 0 431 106" fill="none" xmlns="http://www.w3.org/2000/svg">
<path d="M82.224 31.68H109.104V39.104H91.952V47.36H107.44V54.72H91.952V64.576H109.296V72H82.224V31.68ZM134.348 56.256L145.228 72H134.348L131.788 68.16L128.396 62.08L125.26 68.096L122.828 72H112.076L122.828 56.256L112.716 41.28H123.276L125.836 45.248L128.844 51.072L131.66 45.248L134.028 41.28H144.396L134.348 56.256ZM150.038 43.968C151.787 42.944 153.75 42.1333 155.926 41.536C158.145 40.896 160.406 40.576 162.71 40.576C166.507 40.576 169.558 41.4933 171.862 43.328C174.166 45.1627 175.318 48.0853 175.318 52.096V72H168.086L167.254 68.928H166.998C166.145 70.0373 164.95 70.9547 163.414 71.68C161.921 72.3627 160.15 72.704 158.102 72.704C156.353 72.704 154.817 72.448 153.494 71.936C152.214 71.424 151.147 70.7413 150.294 69.888C149.441 69.0347 148.779 68.032 148.31 66.88C147.883 65.6853 147.67 64.4267 147.67 63.104C147.67 61.312 148.054 59.776 148.822 58.496C149.633 57.216 150.699 56.1707 152.022 55.36C153.387 54.5493 154.966 53.952 156.758 53.568C158.593 53.184 160.534 52.992 162.582 52.992H165.782V51.328C165.782 50.176 165.377 49.3013 164.566 48.704C163.755 48.064 162.603 47.744 161.11 47.744C159.83 47.744 158.571 47.936 157.334 48.32C156.097 48.704 154.731 49.3227 153.238 50.176L150.038 43.968ZM165.846 58.752L163.734 58.816C162.539 58.8587 161.537 58.9867 160.726 59.2C159.915 59.4133 159.254 59.6907 158.742 60.032C158.273 60.3307 157.931 60.7147 157.718 61.184C157.505 61.6107 157.398 62.0587 157.398 62.528C157.398 63.8507 157.782 64.768 158.55 65.28C159.361 65.7493 160.278 65.984 161.302 65.984C162.326 65.984 163.243 65.6853 164.054 65.088C164.907 64.4907 165.505 63.8293 165.846 63.104V58.752ZM218.271 65.28C220.191 65.28 221.812 65.1093 223.135 64.768C224.458 64.4267 225.567 63.9787 226.463 63.424L228.383 70.4C227.53 70.912 226.143 71.424 224.223 71.936C222.346 72.448 220.02 72.704 217.247 72.704C214.09 72.704 211.188 72.2133 208.543 71.232C205.898 70.2507 203.636 68.864 201.759 67.072C199.882 65.2373 198.41 63.04 197.343 60.48C196.319 57.8773 195.807 54.976 195.807 51.776C195.807 48.6613 196.298 45.824 197.279 43.264C198.303 40.6613 199.732 38.464 201.567 36.672C203.444 34.8373 205.706 33.4293 208.351 32.448C211.039 31.424 214.047 30.912 217.375 30.912C220.191 30.912 222.474 31.1893 224.223 31.744C226.015 32.256 227.423 32.7893 228.447 33.344L226.271 40.448C225.29 39.8933 224.116 39.4027 222.751 38.976C221.428 38.5493 219.956 38.336 218.335 38.336C216.628 38.336 215.028 38.592 213.535 39.104C212.042 39.5733 210.74 40.3413 209.631 41.408C208.522 42.4747 207.647 43.8613 207.007 45.568C206.367 47.232 206.047 49.28 206.047 51.712C206.047 53.9733 206.346 55.9573 206.943 57.664C207.583 59.3707 208.458 60.8 209.567 61.952C210.676 63.0613 211.956 63.8933 213.407 64.448C214.9 65.0027 216.522 65.28 218.271 65.28ZM233.837 72V41.28H241.261L242.221 46.656C242.605 45.888 243.074 45.1413 243.629 44.416C244.184 43.648 244.845 42.9867 245.613 42.432C246.381 41.8773 247.256 41.4293 248.237 41.088C249.261 40.7467 250.392 40.576 251.629 40.576C252.568 40.576 253.421 40.704 254.189 40.96C255 41.1733 255.64 41.4293 256.109 41.728L254.573 49.088C254.104 48.832 253.506 48.5973 252.781 48.384C252.056 48.1707 251.16 48.064 250.093 48.064C248.13 48.064 246.488 48.704 245.165 49.984C243.885 51.264 243.245 53.4827 243.245 56.64V72H233.837ZM285.299 59.392H265.459V59.648C265.459 61.7813 266.291 63.3387 267.955 64.32C269.619 65.3013 271.71 65.792 274.227 65.792C275.976 65.792 277.512 65.6213 278.835 65.28C280.158 64.9387 281.267 64.5333 282.163 64.064L283.891 70.592C282.739 71.1467 281.267 71.6373 279.475 72.064C277.726 72.4907 275.571 72.704 273.011 72.704C270.707 72.704 268.51 72.4053 266.419 71.808C264.371 71.168 262.558 70.208 260.979 68.928C259.443 67.648 258.206 66.0267 257.267 64.064C256.371 62.1013 255.923 59.7547 255.923 57.024C255.923 54.592 256.286 52.3733 257.011 50.368C257.779 48.32 258.846 46.5707 260.211 45.12C261.576 43.6693 263.198 42.56 265.075 41.792C266.995 40.9813 269.107 40.576 271.411 40.576C275.635 40.576 279.006 41.856 281.523 44.416C284.04 46.976 285.299 50.624 285.299 55.36V59.392ZM275.635 52.928C275.635 52.2027 275.55 51.4987 275.379 50.816C275.208 50.1333 274.931 49.536 274.547 49.024C274.206 48.4693 273.736 48.0427 273.139 47.744C272.584 47.4027 271.902 47.232 271.091 47.232C269.598 47.232 268.36 47.7653 267.379 48.832C266.398 49.856 265.822 51.264 265.651 53.056L275.635 52.928ZM291.726 43.968C293.475 42.944 295.438 42.1333 297.614 41.536C299.832 40.896 302.094 40.576 304.398 40.576C308.195 40.576 311.246 41.4933 313.55 43.328C315.854 45.1627 317.006 48.0853 317.006 52.096V72H309.774L308.942 68.928H308.686C307.832 70.0373 306.638 70.9547 305.102 71.68C303.608 72.3627 301.838 72.704 299.79 72.704C298.04 72.704 296.504 72.448 295.182 71.936C293.902 71.424 292.835 70.7413 291.982 69.888C291.128 69.0347 290.467 68.032 289.998 66.88C289.571 65.6853 289.358 64.4267 289.358 63.104C289.358 61.312 289.742 59.776 290.51 58.496C291.32 57.216 292.387 56.1707 293.71 55.36C295.075 54.5493 296.654 53.952 298.446 53.568C300.28 53.184 302.222 52.992 304.27 52.992H307.47V51.328C307.47 50.176 307.064 49.3013 306.253 48.704C305.443 48.064 304.291 47.744 302.798 47.744C301.518 47.744 300.259 47.936 299.022 48.32C297.784 48.704 296.419 49.3227 294.926 50.176L291.726 43.968ZM307.534 58.752L305.422 58.816C304.227 58.8587 303.224 58.9867 302.414 59.2C301.603 59.4133 300.942 59.6907 300.43 60.032C299.96 60.3307 299.619 60.7147 299.406 61.184C299.192 61.6107 299.086 62.0587 299.086 62.528C299.086 63.8507 299.47 64.768 300.238 65.28C301.048 65.7493 301.966 65.984 302.99 65.984C304.014 65.984 304.931 65.6853 305.742 65.088C306.595 64.4907 307.192 63.8293 307.534 63.104V58.752ZM343.533 48.064H335.661V61.056C335.661 62.464 335.959 63.4453 336.557 64C337.197 64.5547 338.071 64.832 339.181 64.832C340.034 64.832 340.887 64.7467 341.741 64.576C342.594 64.4053 343.255 64.1707 343.725 63.872L345.133 70.336C344.407 70.72 343.298 71.104 341.805 71.488C340.354 71.8293 338.797 72 337.133 72C333.165 72 330.349 71.232 328.685 69.696C327.063 68.16 326.253 65.8347 326.253 62.72V48.064H321.453V41.28H326.253V31.936H335.661V41.28H343.533V48.064ZM386.722 41.28H396.77L386.018 72H374.754L364.514 41.28H374.626L378.338 54.72L380.45 65.408H380.706L382.818 54.72L386.722 41.28ZM428.112 59.392H408.272V59.648C408.272 61.7813 409.104 63.3387 410.768 64.32C412.432 65.3013 414.522 65.792 417.04 65.792C418.789 65.792 420.325 65.6213 421.648 65.28C422.97 64.9387 424.08 64.5333 424.976 64.064L426.704 70.592C425.552 71.1467 424.08 71.6373 422.288 72.064C420.538 72.4907 418.384 72.704 415.824 72.704C413.52 72.704 411.322 72.4053 409.232 71.808C407.184 71.168 405.37 70.208 403.792 68.928C402.256 67.648 401.018 66.0267 400.08 64.064C399.184 62.1013 398.736 59.7547 398.736 57.024C398.736 54.592 399.098 52.3733 399.824 50.368C400.592 48.32 401.658 46.5707 403.024 45.12C404.389 43.6693 406.01 42.56 407.888 41.792C409.808 40.9813 411.92 40.576 414.224 40.576C418.448 40.576 421.818 41.856 424.336 44.416C426.853 46.976 428.112 50.624 428.112 55.36V59.392ZM418.448 52.928C418.448 52.2027 418.362 51.4987 418.192 50.816C418.021 50.1333 417.744 49.536 417.36 49.024C417.018 48.4693 416.549 48.0427 415.952 47.744C415.397 47.4027 414.714 47.232 413.904 47.232C412.41 47.232 411.173 47.7653 410.192 48.832C409.21 49.856 408.634 51.264 408.464 53.056L418.448 52.928Z" fill="#000E8E"/>
<path d="M0 10C0 4.47715 4.47715 0 10 0H33V55C33 60.5228 28.5228 65 23 65H0V10Z" fill="#FF00BB"/>
<path d="M39 18H62C67.5228 18 72 22.4772 72 28V83H49C43.4772 83 39 78.5228 39 73V18Z" fill="#9900FF"/>
<rect x="350" y="41" width="10" height="31" fill="#000E8E"/>
<path d="M349 25C349 24.4477 349.448 24 350 24H351C355.971 24 360 28.0294 360 33V38C360 38.5523 359.552 39 359 39H358C353.029 39 349 34.9706 349 30V25Z" fill="#FF00BB"/>
</svg>
